# Blender 4.5.0
# www.blender.org
mtllib chair.mtl
o Cube
v 0.188266 0.400000 -0.175000
v 0.188266 0.450000 0.175000
v -0.225000 0.400000 -0.175000
v -0.225000 0.450000 0.175000
v 0.188266 0.400000 -0.225000
v -0.225000 0.400000 -0.225000
v 0.188266 0.450000 -0.225000
v -0.225000 0.450000 -0.225000
v -0.225000 0.400000 0.225000
v 0.188266 0.400000 0.225000
v 0.206633 0.400000 -0.175000
v 0.206633 0.450000 0.175000
v 0.206633 0.450000 -0.225000
v 0.206633 0.400000 -0.225000
v 0.206633 0.400000 0.225000
v -0.243368 0.400000 -0.175000
v -0.243368 0.450000 0.175000
v -0.243368 0.450000 -0.225000
v -0.243368 0.400000 -0.225000
v -0.243368 0.400000 0.225000
v 0.188266 0.400000 0.135000
v 0.188266 0.360000 0.175000
v 0.188266 0.394641 0.155000
v 0.188266 0.380000 0.169641
v -0.225000 0.360000 0.175000
v -0.225000 0.400000 0.135000
v -0.225000 0.380000 0.169641
v -0.225000 0.394641 0.155000
v -0.225000 0.450000 0.185000
v -0.225000 0.410000 0.225000
v -0.225000 0.444641 0.205000
v -0.225000 0.430000 0.219641
v 0.188266 0.450000 0.185000
v 0.188266 0.410000 0.225000
v 0.188266 0.444641 0.205000
v 0.188266 0.430000 0.219641
v 0.206633 0.360000 0.175000
v 0.206633 0.400000 0.135000
v 0.206633 0.440000 0.175000
v 0.206633 0.400000 0.215000
v 0.206633 0.380000 0.169641
v 0.206633 0.394641 0.155000
v 0.206633 0.450000 0.185000
v 0.206633 0.410000 0.225000
v 0.206633 0.444641 0.205000
v 0.206633 0.430000 0.219641
v -0.243368 0.400000 0.135000
v -0.243368 0.360000 0.175000
v -0.243368 0.400000 0.215000
v -0.243368 0.440000 0.175000
v -0.243368 0.394641 0.155000
v -0.243368 0.380000 0.169641
v -0.243368 0.410000 0.225000
v -0.243368 0.450000 0.185000
v -0.243368 0.430000 0.219641
v -0.243368 0.444641 0.205000
v 0.188266 0.450000 -0.135000
v 0.188266 0.490000 -0.175000
v 0.188266 0.455359 -0.155000
v 0.188266 0.470000 -0.169641
v -0.225000 0.490000 -0.175000
v -0.225000 0.450000 -0.135000
v -0.225000 0.470000 -0.169641
v -0.225000 0.455359 -0.155000
v 0.206633 0.490000 -0.175000
v 0.206633 0.450000 -0.135000
v 0.206633 0.410000 -0.175000
v 0.206633 0.450000 -0.215000
v 0.206633 0.470000 -0.169641
v 0.206633 0.455359 -0.155000
v -0.243368 0.450000 -0.135000
v -0.243368 0.490000 -0.175000
v -0.243368 0.450000 -0.215000
v -0.243368 0.410000 -0.175000
v -0.243368 0.455359 -0.155000
v -0.243368 0.470000 -0.169641
v -0.215000 0.900000 -0.265000
v -0.235000 0.900000 -0.265000
v -0.225000 0.890102 -0.253069
v 0.198266 0.900000 -0.265000
v 0.178266 0.900000 -0.265000
v 0.188266 0.890102 -0.253069
v -0.225000 0.890087 -0.273899
v -0.235000 0.900000 -0.265000
v -0.215000 0.900000 -0.265000
v 0.178266 0.900000 -0.265000
v 0.198266 0.900000 -0.265000
v 0.188266 0.890087 -0.273899
v 0.206633 0.890096 -0.253067
v 0.196633 0.900000 -0.265000
v 0.196633 0.900000 -0.265000
v 0.206633 0.890089 -0.273899
v -0.243368 0.890096 -0.253067
v -0.233368 0.900000 -0.265000
v -0.233368 0.900000 -0.265000
v -0.243368 0.890089 -0.273899
v 0.188266 0.039691 -0.220039
v 0.188266 0.000000 -0.265000
v 0.188266 0.019846 -0.227878
v 0.188266 0.005318 -0.244335
v -0.225000 0.000000 -0.265000
v -0.225000 0.039691 -0.220039
v -0.225000 0.005318 -0.244335
v -0.225000 0.019846 -0.227878
v 0.188266 0.000000 -0.235000
v 0.188266 0.039691 -0.270039
v 0.188266 0.005318 -0.254335
v 0.188266 0.019846 -0.267160
v -0.225000 0.039691 -0.270039
v -0.225000 0.000000 -0.235000
v -0.225000 0.019846 -0.267160
v -0.225000 0.005318 -0.254335
v -0.225000 0.000000 0.265000
v -0.225000 0.039620 0.219497
v -0.225000 0.005308 0.244263
v -0.225000 0.019810 0.227608
v 0.188266 0.039620 0.219497
v 0.188266 0.000000 0.265000
v 0.188266 0.019810 0.227608
v 0.188266 0.005308 0.244263
v -0.225000 0.000000 0.235000
v -0.225000 0.039691 0.270039
v -0.225000 0.005318 0.254335
v -0.225000 0.019846 0.267160
v 0.188266 0.000000 0.235000
v 0.188266 0.039691 0.270039
v 0.188266 0.005318 0.254335
v 0.188266 0.019846 0.267160
v 0.206633 0.000000 0.265000
v 0.206633 0.039620 0.219497
v 0.206633 0.005308 0.244263
v 0.206633 0.019810 0.227608
v 0.206633 0.039691 0.270039
v 0.206633 0.000000 0.235000
v 0.206633 0.019846 0.267160
v 0.206633 0.005318 0.254335
v -0.243368 0.039620 0.219497
v -0.243368 0.000000 0.265000
v -0.243368 0.019810 0.227608
v -0.243368 0.005308 0.244263
v -0.243368 0.000000 0.235000
v -0.243368 0.039691 0.270039
v -0.243368 0.005318 0.254335
v -0.243368 0.019846 0.267160
vn -0.0000 -0.0000 -1.0000
vn -0.0000 -1.0000 -0.0000
vn 1.0000 -0.0000 -0.0000
vn -1.0000 -0.0000 -0.0000
vn -0.0000 0.2588 0.9659
vn -0.0000 0.7071 0.7071
vn -0.0000 0.9659 0.2588
vn -0.0000 -0.9659 -0.2588
vn -0.0000 -0.7071 -0.7071
vn -0.0000 -0.2588 -0.9659
vn -0.0000 -0.0000 1.0000
vn -0.0000 1.0000 -0.0000
vn -0.0000 0.7696 0.6385
vn -0.0000 0.6680 -0.7442
vn 0.0003 0.7696 0.6386
vn 0.7038 0.7104 -0.0002
vn -0.0001 0.6680 -0.7441
vn -0.7038 0.7104 -0.0002
vn -0.0003 0.7696 0.6386
vn 0.0001 0.6680 -0.7441
vn -0.0000 0.1915 0.9815
vn -0.0000 -0.1104 -0.9939
vn -0.0000 -0.9642 0.2652
vn -0.0000 -0.6618 0.7497
vn -0.0000 -0.1435 0.9896
vn -0.0000 -0.3674 0.9301
vn -0.0000 -0.7497 0.6618
vn -0.0000 -0.9684 0.2492
vn -0.0000 -0.9642 -0.2652
vn -0.0000 -0.6618 -0.7497
vn -0.0000 -0.1435 -0.9896
vn -0.0000 -0.3789 -0.9254
vn -0.0000 -0.7542 -0.6567
vn -0.0000 -0.9688 -0.2480
vn -0.0000 -0.1240 0.9923
vn -0.0000 0.1240 -0.9923
vn -0.0000 -0.1376 -0.9905
vn -0.0000 0.1240 0.9923
vt 0.375000 0.500000
vt 0.625000 0.500000
vt 0.375000 0.250000
vt 0.625000 0.250000
vt 0.375000 0.750000
vt 0.375000 0.746948
vt 0.375000 0.724557
vt 0.575000 0.750000
vt 0.375000 0.024469
vt 0.375000 0.000000
vt 0.375000 0.000000
vt 0.548077 0.000000
vt 0.425000 0.750000
vt 0.425000 0.750000
vt 0.525000 0.750000
vt 0.525000 0.750000
vt 0.608096 0.750000
vt 0.625000 0.750000
vt 0.625000 0.750000
vt 0.125000 0.721429
vt 0.375000 0.721429
vt 0.375000 0.735714
vt 0.125000 0.735714
vt 0.125000 0.750000
vt 0.375000 0.750000
vt 0.125000 0.750000
vt 0.875000 0.750000
vt 0.875000 0.750000
vt 0.625000 1.000000
vt 0.525000 1.000000
vt 0.425000 1.000000
vt 0.125000 0.735714
vt 0.525000 1.000000
vt 0.875000 0.750000
vt 0.125000 0.500000
vt 0.375000 1.000000
vt 0.625000 0.000000
vt 0.425000 0.000000
vt 0.525000 0.000000
vt 0.598205 0.000000
vt 0.625000 0.500000
vt 0.625000 0.503052
vt 0.625000 0.525342
vt 0.425000 0.500000
vt 0.625000 0.221429
vt 0.625000 0.235714
vt 0.625000 0.246172
vt 0.625000 0.250000
vt 0.425000 0.250000
vt 0.875000 0.528571
vt 0.625000 0.528571
vt 0.625000 0.514286
vt 0.875000 0.514286
vt 0.875000 0.500000
vt 0.875000 0.528571
vt 0.875000 0.500000
vt 0.875000 0.500000
vt 0.868951 0.500000
vt 0.875000 0.500000
vt 0.631049 0.500000
vt 0.625000 0.500000
vt 0.869097 0.500000
vt 0.631049 0.500000
vt 0.125000 0.750000
vt 0.375000 1.000000
vt 0.375000 1.000000
vt 0.375000 0.500000
vt 0.125000 0.500000
vt 0.375000 0.500000
vt 0.375000 0.250000
vt 0.375000 0.750000
vt 0.125000 0.750000
vt 0.375000 0.750000
vt 0.375000 0.250000
vt 0.375000 0.250000
vt 0.375000 0.000000
s 0
usemtl Material
f 5/1/1 7/2/1 13/2/1 14/1/1
f 6/3/1 8/4/1 7/2/1 5/1/1
f 6/3/2 3/3/2 16/3/2 19/3/2
f 1/1/2 5/1/2 14/1/2 11/1/2
f 8/4/1 6/3/1 19/3/1 18/4/1
f 37/5/3 41/5/3 42/6/3 38/7/3 39/8/3 40/5/3
f 47/9/4 51/10/4 52/10/4 48/10/4 49/11/4 50/12/4
f 34/13/5 44/14/5 46/15/5 36/16/5
f 36/16/6 46/15/6 45/17/6 35/18/6
f 35/18/7 45/17/7 43/19/7 33/19/7
f 26/20/8 21/21/8 23/22/8 28/23/8
f 28/23/9 23/22/9 24/5/9 27/24/9
f 27/24/10 24/5/10 22/25/10 25/26/10
f 33/19/7 29/27/7 31/28/7 35/18/7
f 35/18/6 31/29/6 32/30/6 36/16/6
f 36/16/5 32/30/5 30/31/5 34/13/5
f 37/5/10 22/25/10 24/5/10 41/5/10
f 41/5/9 24/5/9 23/22/9 42/6/9
f 42/6/8 23/22/8 21/21/8 38/7/8
f 25/26/10 48/26/10 52/26/10 27/24/10
f 27/24/9 52/26/9 51/32/9 28/23/9
f 28/23/8 51/32/8 47/20/8 26/20/8
f 53/31/5 30/31/5 32/30/5 55/33/5
f 55/33/6 32/30/6 31/29/6 56/29/6
f 56/27/7 31/28/7 29/27/7 54/34/7
f 3/35/2 1/1/2 21/21/2 26/20/2
f 21/21/2 1/1/2 11/1/2 38/7/2
f 3/35/2 26/20/2 47/20/2 16/35/2
f 9/36/11 30/31/11 53/31/11 20/36/11
f 10/5/11 34/13/11 30/31/11 9/36/11
f 2/19/12 4/27/12 29/27/12 33/19/12
f 29/27/12 4/27/12 17/27/12 54/34/12
f 34/13/11 10/5/11 15/5/11 44/14/11
f 2/19/12 33/19/12 43/19/12 12/19/12
f 40/5/3 39/8/3 12/19/3 43/19/3 45/17/3 46/15/3 44/14/3 15/5/3
f 17/37/4 50/12/4 49/11/4 20/10/4 53/38/4 55/39/4 56/40/4 54/37/4
f 65/41/3 69/2/3 70/42/3 66/43/3 67/44/3 68/2/3
f 71/45/4 75/46/4 76/47/4 72/4/4 73/48/4 74/49/4
f 62/50/7 57/51/7 59/52/7 64/53/7
f 64/53/6 59/52/6 60/2/6 63/54/6
f 63/54/5 60/2/5 58/41/5 61/54/5
f 57/51/7 66/43/7 70/42/7 59/52/7
f 59/52/6 70/42/6 69/2/6 60/2/6
f 60/2/5 69/2/5 65/41/5 58/41/5
f 71/55/7 62/50/7 64/53/7 75/53/7
f 75/53/6 64/53/6 63/54/6 76/56/6
f 76/56/5 63/54/5 61/54/5 72/57/5
f 57/51/12 2/19/12 12/19/12 66/43/12
f 57/51/12 62/50/12 4/27/12 2/19/12
f 4/27/12 62/50/12 71/55/12 17/27/12
f 68/2/3 67/44/3 11/1/3 14/1/3 13/2/3
f 11/1/3 67/44/3 66/43/3 12/19/3 39/8/3 38/7/3
f 47/9/4 50/12/4 17/37/4 71/45/4 74/49/4 16/3/4
f 16/3/4 74/49/4 73/48/4 18/4/4 19/3/4
f 77/58/13 78/59/13 79/54/13
f 80/2/13 81/60/13 82/61/13
f 83/54/14 84/59/14 85/62/14
f 86/63/14 87/2/14 88/61/14
f 90/61/15 80/2/15 82/61/15 89/2/15
f 79/54/13 82/61/13 81/60/13 77/58/13
f 85/62/14 86/63/14 88/61/14 83/54/14
f 77/58/12 85/62/12 84/59/12 78/59/12
f 80/2/12 87/2/12 86/63/12 81/60/12
f 89/2/16 92/2/16 91/61/16 90/61/16
f 92/2/17 88/61/17 87/2/17 91/61/17
f 94/54/18 95/54/18 96/54/18 93/57/18
f 78/59/19 94/54/19 93/57/19 79/54/19
f 95/54/20 84/59/20 83/54/20 96/54/20
f 61/54/21 58/41/21 82/61/21 79/54/21
f 77/58/12 81/60/12 86/63/12 85/62/12
f 78/59/12 84/59/12 95/54/12 94/54/12
f 61/54/21 79/54/21 93/57/21 72/57/21
f 82/61/21 58/41/21 65/41/21 89/2/21
f 87/2/12 80/2/12 90/61/12 91/61/12
f 7/2/22 8/4/22 83/4/22 88/61/22
f 83/4/22 8/4/22 18/4/22 96/4/22
f 7/2/22 88/61/22 92/2/22 13/2/22
f 65/41/3 68/2/3 13/2/3 92/2/3 89/2/3
f 18/4/4 73/48/4 72/4/4 93/4/4 96/4/4
f 141/26/23 121/64/23 123/64/23 143/64/23
f 143/64/24 123/64/24 124/26/24 144/26/24
f 144/36/25 124/65/25 122/66/25 142/36/25
f 97/67/26 102/68/26 104/35/26 99/1/26
f 99/1/27 104/35/27 103/35/27 100/1/27
f 100/1/28 103/35/28 101/35/28 98/1/28
f 105/1/29 110/35/29 112/35/29 107/69/29
f 107/69/30 112/35/30 111/35/30 108/1/30
f 108/1/31 111/70/31 109/3/31 106/1/31
f 114/64/32 117/5/32 119/5/32 116/64/32
f 116/64/33 119/5/33 120/71/33 115/64/33
f 115/64/34 120/71/34 118/5/34 113/72/34
f 121/64/23 125/25/23 127/25/23 123/64/23
f 123/64/24 127/25/24 128/73/24 124/26/24
f 124/65/25 128/73/25 126/5/25 122/66/25
f 117/5/32 130/5/32 132/73/32 119/5/32
f 119/5/33 132/73/33 131/71/33 120/71/33
f 120/71/34 131/71/34 129/25/34 118/5/34
f 133/73/25 126/5/25 128/73/25 135/73/25
f 135/73/24 128/73/24 127/25/24 136/73/24
f 136/73/23 127/25/23 125/25/23 134/5/23
f 137/26/32 114/64/32 116/64/32 139/26/32
f 139/26/33 116/64/33 115/64/33 140/64/33
f 140/64/34 115/64/34 113/72/34 138/64/34
f 1/1/35 3/35/35 102/68/35 97/67/35
f 98/1/12 101/35/12 110/35/12 105/1/12
f 5/1/3 1/1/3 97/67/3 99/1/3 100/1/3 98/1/3 105/1/3 107/69/3 108/1/3 106/1/3
f 3/3/4 6/3/4 109/3/4 111/70/4 112/3/4 110/3/4 101/3/4 103/74/4 104/75/4 102/3/4
f 6/3/36 5/1/36 106/1/36 109/3/36
f 25/26/37 22/25/37 117/5/37 114/64/37
f 113/72/12 118/5/12 125/25/12 121/64/12
f 113/72/12 121/64/12 141/26/12 138/64/12
f 25/26/37 114/64/37 137/26/37 48/26/37
f 125/25/12 118/5/12 129/25/12 134/5/12
f 117/5/37 22/25/37 37/5/37 130/5/37
f 10/5/38 9/36/38 122/66/38 126/5/38
f 122/66/38 9/36/38 20/36/38 142/36/38
f 10/5/38 126/5/38 133/73/38 15/5/38
f 37/5/3 40/5/3 15/5/3 133/73/3 135/73/3 136/73/3 134/5/3 129/25/3 131/71/3 132/73/3 130/5/3
f 20/10/4 49/11/4 48/10/4 137/10/4 139/76/4 140/10/4 138/10/4 141/10/4 143/10/4 144/76/4 142/11/4
