# Blender 4.5.0
# www.blender.org
mtllib model1.mtl
o Cube
v 1.000000 1.000000 -1.000000
v 1.000000 -1.000000 -1.000000
v 1.000000 1.000000 1.000000
v 1.000000 -1.000000 1.000000
v -1.000000 1.000000 -1.000000
v -1.000000 -1.000000 -1.000000
v -1.000000 1.000000 1.000000
v -1.000000 -1.000000 1.000000
v 1.000000 2.357969 0.642031
v -1.000000 2.000000 1.000000
v 1.000000 2.357969 -0.642031
v -1.000000 2.000000 -1.000000
v -1.000000 1.000000 -2.708736
v -1.000000 0.000000 1.000000
v 1.000000 0.000000 -1.000000
v 1.000000 3.315521 0.642031
v 1.000000 3.315521 -0.642031
v 0.784580 2.357969 -0.642031
v 0.784580 2.357969 0.642031
v 0.784580 3.315521 -0.642031
v 0.784580 3.315521 0.642031
v -0.800000 3.673490 0.800000
v -1.000000 3.473490 1.000000
v -0.941421 3.614912 0.941421
v -0.800000 3.673490 -0.800000
v -1.000000 3.473490 -1.000000
v -0.941421 3.614912 -0.941421
v 0.800000 3.673490 -0.800000
v 0.941421 3.614912 -0.941421
v 0.800000 3.673490 0.800000
v 0.941421 3.614912 0.941421
v 0.850317 2.000000 -1.000000
v 1.000000 2.149683 -0.850317
v 1.000000 2.000000 -0.850317
v 1.105842 2.000000 -1.105842
v 1.000000 2.149683 0.850317
v 0.850317 2.000000 1.000000
v 1.000000 1.850317 1.000000
v 1.149683 2.000000 1.000000
v 1.000000 2.000000 0.850317
v 1.000000 3.407436 -0.850317
v 0.850317 3.473490 -1.000000
v 0.946502 3.602645 -0.946502
v 1.000000 3.473490 -0.850317
v 0.850317 3.473490 1.000000
v 1.000000 3.407436 0.850317
v 1.000000 3.473490 0.850317
v 0.946502 3.602645 0.946502
v 2.208259 1.200000 -2.208259
v 2.033155 1.000000 -2.033155
v 2.010648 1.000000 -2.239085
v 2.156972 1.058579 -2.156972
v 2.506317 1.000000 1.000000
v 2.708736 1.200000 1.000000
v 2.649448 1.058579 1.000000
v 2.208259 1.866531 -2.208259
v 2.113882 2.000000 -2.113882
v 2.228830 2.000000 -2.076385
v 2.688164 2.000000 0.868126
v 2.575268 2.000000 1.000000
v 2.708736 1.866531 1.000000
v 1.000000 0.000000 1.000000
v -1.000000 0.000000 -1.000000
v 1.000000 -0.500000 -1.000000
v 1.000000 -0.500000 1.000000
v -1.000000 -0.500000 -1.000000
v -1.000000 -0.500000 1.000000
v 0.650682 0.000000 -0.650682
v 0.650682 0.000000 0.650682
v -0.650682 0.000000 -0.650682
v -0.650682 -0.500000 0.650682
v -0.650682 0.000000 0.650682
v 0.650682 -0.500000 -0.650682
v 0.650682 -0.500000 0.650682
v -0.650682 -0.500000 -0.650682
v -1.000000 2.728401 1.000000
v -0.117942 3.473490 1.000000
v 0.385285 3.098258 1.000000
v -0.052342 2.777962 1.000000
v 0.580681 2.813648 1.000000
v 0.217851 2.484867 1.000000
v 0.591840 2.586948 1.000000
v -0.040291 2.161852 1.000000
v -0.052342 2.777962 1.234840
v 0.580681 2.813648 1.234840
v 0.217851 2.484867 1.234840
v 0.591840 2.586948 1.234840
v -0.040291 2.161852 1.234840
v -1.000000 2.728401 0.741795
v -0.117942 3.473490 0.741795
v 0.385285 3.098258 0.741795
v -1.000000 2.000000 -2.323077
v -1.000000 1.618950 -2.708736
v -1.000000 1.948949 -2.515907
v -1.000000 1.809475 -2.657068
v 2.208259 1.866531 -2.208259
v 2.113882 2.000000 -2.113882
v 2.147346 1.933266 -2.203144
v 2.112801 1.982118 -2.168600
vn -0.0000 -0.0000 1.0000
vn -1.0000 -0.0000 -0.0000
vn -0.0000 -1.0000 -0.0000
vn 1.0000 -0.0000 -0.0000
vn -0.0000 -0.0000 -1.0000
vn -0.0000 1.0000 -0.0000
vn -0.0000 0.9239 0.3827
vn 0.3827 0.9239 -0.0000
vn -0.3827 0.9239 -0.0000
vn -0.9239 0.3827 -0.0000
vn -0.0000 0.9239 -0.3827
vn 0.3574 0.8629 -0.3574
vn 0.2673 0.5345 0.8018
vn 0.6988 -0.1528 -0.6988
vn 0.6988 -0.1528 0.6988
vn 0.7071 -0.0000 0.7071
vn 0.7071 -0.0000 -0.7071
vn -0.0000 0.3827 -0.9239
vn 0.9239 0.3827 -0.0000
vn -0.0000 0.3827 0.9239
vn 0.5673 -0.4547 -0.6866
vn 0.3919 -0.9190 -0.0428
vn 0.9128 -0.3827 -0.1424
vn 0.3781 -0.9239 -0.0590
vn 0.6049 0.6049 0.5179
vn 0.9881 -0.0000 -0.1541
vn -0.2580 0.9662 -0.0000
vn -0.9998 -0.0196 -0.0000
vn -0.2633 0.9647 -0.0000
vn -0.0563 0.9984 -0.0000
vn 0.5580 -0.8298 -0.0000
vn 0.6715 -0.7410 -0.0000
vn -0.5978 -0.8017 -0.0000
vn 0.6453 -0.7639 -0.0000
vn 0.1302 0.2430 -0.9613
vn 0.0752 0.6876 -0.7222
vn 0.0188 0.9632 -0.2683
vn 0.1541 -0.0000 -0.9881
vn 0.4124 0.7021 -0.5805
vt 0.500000 0.750000
vt 0.625000 0.750000
vt 0.625000 1.000000
vt 0.500000 1.000000
vt 0.500000 0.000000
vt 0.625000 0.000000
vt 0.625000 0.250000
vt 0.500000 0.250000
vt 0.125000 0.500000
vt 0.375000 0.500000
vt 0.375000 0.750000
vt 0.125000 0.750000
vt 0.500000 0.500000
vt 0.625000 0.500000
vt 0.625000 0.705254
vt 0.625000 0.705254
vt 0.625000 0.544746
vt 0.625000 0.544746
vt 0.650000 0.725000
vt 0.850000 0.725000
vt 0.871339 0.746339
vt 0.626731 0.748269
vt 0.650000 0.525000
vt 0.628661 0.503661
vt 0.850000 0.525000
vt 0.870028 0.502351
vt 0.625000 0.007322
vt 0.625000 0.242678
vt 0.643710 0.500000
vt 0.625000 0.518185
vt 0.625000 0.518710
vt 0.625000 0.500000
vt 0.625000 0.731290
vt 0.625000 0.768555
vt 0.625000 0.750000
vt 0.625000 0.750000
vt 0.625000 0.518710
vt 0.643592 0.500000
vt 0.628344 0.503344
vt 0.625000 0.518710
vt 0.625000 0.768710
vt 0.625000 0.731785
vt 0.625000 0.731290
vt 0.626581 0.748419
vt 0.875000 0.500000
vt 0.875000 0.500000
vt 0.625000 0.800941
vt 0.625000 0.879966
vt 0.625000 0.881512
vt 0.625000 0.992678
vt 0.625000 0.889743
vt 0.625000 0.503293
vt 0.625000 0.484601
vt 0.625000 0.511243
vt 0.625000 0.484601
vt 0.625000 0.749743
vt 0.625000 0.503293
vt 0.625000 0.750000
vt 0.437500 0.750000
vt 0.437500 0.500000
vt 0.437500 1.000000
vt 0.625000 0.739724
vt 0.625000 0.750000
vt 0.625000 0.500000
vt 0.625000 0.510276
vt 0.625000 0.500000
vt 0.375000 0.000000
vt 0.437500 0.000000
vt 0.437500 0.250000
vt 0.375000 0.250000
vt 0.375000 1.000000
vt 0.625000 0.847703
vt 0.625000 0.802358
vt 0.625000 0.826811
vt 0.625002 0.250208
vt 0.627668 0.498109
vt 0.625011 0.250461
vt 0.630577 0.495422
vt 0.872667 0.499956
s 0
usemtl Material
f 62/1/1 3/2/1 7/3/1 14/4/1
f 14/5/2 7/6/2 5/7/2 63/8/2
f 6/9/3 2/10/3 4/11/3 8/12/3
f 15/13/4 1/14/4 3/2/4 62/1/4
f 63/8/5 5/7/5 1/14/5 15/13/5
f 5/7/2 7/6/2 10/6/2 12/7/2
f 16/15/5 9/16/5 19/16/5 21/15/5
f 19/16/4 18/17/4 20/18/4 21/15/4
f 17/18/3 16/15/3 21/15/3 20/18/3
f 11/17/1 17/18/1 20/18/1 18/17/1
f 9/16/6 11/17/6 18/17/6 19/16/6
f 30/19/7 22/20/7 24/21/7 31/22/7
f 28/23/8 30/19/8 31/22/8 29/24/8
f 22/20/9 25/25/9 27/26/9 24/21/9
f 24/27/10 27/28/10 26/7/10 23/6/10
f 25/25/11 28/23/11 29/24/11 27/26/11
f 28/23/6 25/25/6 22/20/6 30/19/6
f 12/7/2 10/6/2 76/6/2 23/6/2 26/7/2
f 32/29/12 33/30/12 34/31/12 35/32/12
f 36/33/13 37/34/13 38/35/13 39/36/13 40/33/13
f 41/37/14 42/38/14 43/39/14 44/40/14
f 45/41/15 46/42/15 47/43/15 48/44/15
f 36/33/16 46/42/16 45/41/16 37/34/16
f 41/37/17 33/30/17 32/29/17 42/38/17
f 11/17/4 9/16/4 36/33/4 40/33/4 34/31/4 33/30/4
f 17/18/4 11/17/4 33/30/4 41/37/4
f 14/5/3 63/8/3 70/8/3 72/5/3
f 32/29/5 12/45/5 26/46/5 42/38/5
f 15/13/3 62/1/3 69/1/3 68/13/3
f 10/3/1 37/34/1 82/47/1 83/48/1 79/49/1 76/3/1
f 7/3/1 3/2/1 38/35/1 37/34/1 10/3/1
f 9/16/4 16/15/4 46/42/4 36/33/4
f 27/26/18 29/24/18 43/39/18 42/38/18 26/46/18
f 29/24/19 31/22/19 48/44/19 47/43/19 44/40/19 43/39/19
f 16/15/4 17/18/4 41/37/4 44/40/4 47/43/4 46/42/4
f 31/22/20 24/50/20 23/3/20 77/51/20 45/41/20 48/44/20
f 49/14/21 52/52/21 51/53/21
f 52/52/22 50/54/22 51/55/22
f 49/14/23 54/35/23 55/56/23 52/57/23
f 52/57/24 55/56/24 53/58/24 50/32/24
f 1/14/3 5/7/3 13/7/3 51/53/3 50/32/3
f 3/2/3 1/14/3 50/32/3 53/58/3
f 65/59/6 64/60/6 73/60/6 74/59/6
f 67/61/6 65/59/6 74/59/6 71/61/6
f 59/62/25 60/63/25 61/2/25
f 54/35/26 49/14/26 56/64/26 58/65/26 59/62/26 61/2/26
f 35/32/6 34/31/6 40/33/6 39/36/6 60/63/6 59/62/6 58/65/6 57/66/6
f 39/36/1 38/35/1 3/2/1 53/58/1 55/56/1 54/35/1 61/2/1 60/63/1
f 2/10/4 64/60/4 65/59/4 4/11/4
f 8/67/2 67/68/2 66/69/2 6/70/2
f 4/11/1 65/59/1 67/61/1 8/71/1
f 6/70/5 66/69/5 64/60/5 2/10/5
f 75/69/5 70/8/5 68/13/5 73/60/5
f 74/59/1 69/1/1 72/4/1 71/61/1
f 71/68/2 72/5/2 70/8/2 75/69/2
f 73/60/4 68/13/4 69/1/4 74/59/4
f 64/60/6 66/69/6 75/69/6 73/60/6
f 66/69/6 67/68/6 71/68/6 75/69/6
f 63/8/3 15/13/3 68/13/3 70/8/3
f 62/1/3 14/4/3 72/4/3 69/1/3
f 86/72/1 85/73/1 84/49/1 88/48/1 87/47/1
f 76/3/27 78/74/27 91/74/27 89/3/27
f 76/3/1 77/51/1 23/3/1
f 76/3/1 79/49/1 80/73/1 81/72/1 82/47/1 37/34/1 45/41/1 77/51/1 78/74/1
f 79/49/28 83/48/28 88/48/28 84/49/28
f 82/47/29 81/72/29 86/72/29 87/47/29
f 80/73/30 79/49/30 84/49/30 85/73/30
f 83/48/31 82/47/31 87/47/31 88/48/31
f 81/72/32 80/73/32 85/73/32 86/72/32
f 89/3/1 91/74/1 90/51/1
f 78/74/33 77/51/33 90/51/33 91/74/33
f 77/51/34 76/3/34 89/3/34 90/51/34
f 96/14/35 93/7/35 95/75/35 98/76/35
f 98/76/36 95/75/36 94/77/36 99/78/36
f 99/78/37 94/79/37 92/45/37 97/66/37
f 12/45/6 32/29/6 35/32/6 57/66/6 97/66/6 92/45/6
f 5/7/2 12/7/2 92/7/2 94/77/2 95/75/2 93/7/2 13/7/2
f 49/14/38 51/53/38 13/7/38 93/7/38 96/14/38 56/64/38
f 56/64/39 96/14/39 98/76/39 99/78/39 97/66/39 57/66/39 58/65/39
